# xmcd
#
# Track frame offsets:
#	150
#	9978
#	20896
#	35905
#	45562
#	55399
#	64957
#	73823
#	84803
#	95021
#	106277
#	114791
#	123882
#	136098
#	148255
#	158446
#	169777
#	182239
#	192505
#	202246
#	212368
#	221537
#	230048
#	241449
#	251088
#
# Disc length: 3505 seconds
#
# Revision: 1
# Processed by: cddbd v1.5.2PL0 Copyright (c) Steve Scherf et al.
# Submitted via: audiograbber 1.83.01
#
DISCID=710daf19
DTITLE=Various Artist - Rockabilly Cowboys - Disc 3
DYEAR=2012
DGENRE=Country
TTITLE0=Johnny Cash - All Over Again
TTITLE1=George Thumper Jones - How Come It
TTITLE2=Marty Robbins - Tennessee Toddy
TTITLE3=Tennessee Ernie Ford - Kissin´ Bug Boogie
TTITLE4=Marvin Rainwater - Hot And Cold
TTITLE5=Arnold Parker - Find A New Woman
TTITLE6=Webb Pierce - I Ain´t Never
TTITLE7=Hal Andrews - Brown Eyed Girl
TTITLE8=Johnny Horotn - Honky Tonk Man
TTITLE9=Glenn Barber - Ice Water
TTITLE10=Joe Kozak - Hillbilly Rock
TTITLE11=Little Billy Stoltz and The Stoltz Bros. - Rock And Roll Riot
TTITLE12=The Rhythm Kings - Billy Boy
TTITLE13=Bill Reeder - Till I Waltz Again With You
TTITLE14=The Rhythm Jesters - Rock To The Music
TTITLE15=Lefty Frizzell - You´re Humbuggin´ Me
TTITLE16=Marty Robbins - Pretty Mama
TTITLE17=Red Foley - Crazy Little GuitarèMan
TTITLE18=Wayne Raney - Shake Baby Shake
TTITLE19=Jimmy Murphy - Sixteen Tons Rock `N´ Roll
TTITLE20=Johnny Horton - I´m A One Woman Man
TTITLE21=Curtis Gordon - Sittin´ On Top
TTITLE22=Johnny Cash - Mean Eyed Cat
TTITLE23=Pico Pete - Hot Dog
TTITLE24=Tennessee Ernie Ford - The Shot Gun Boogie
EXTD=
EXTT0=
EXTT1=
EXTT2=
EXTT3=
EXTT4=
EXTT5=
EXTT6=
EXTT7=
EXTT8=
EXTT9=
EXTT10=
EXTT11=
EXTT12=
EXTT13=
EXTT14=
EXTT15=
EXTT16=
EXTT17=
EXTT18=
EXTT19=
EXTT20=
EXTT21=
EXTT22=
EXTT23=
EXTT24=
PLAYORDER=
